<?xml version="1.0" standalone="no"?>
<!DOCTYPE svg PUBLIC "-//W3C//DTD SVG 20010904//EN"
 "http://www.w3.org/TR/2001/REC-SVG-20010904/DTD/svg10.dtd">
<svg version="1.0" xmlns="http://www.w3.org/2000/svg"
 width="28" height="28" viewBox="0 0 100.000000 100.000000"
 preserveAspectRatio="xMidYMid meet">
<metadata>
Created by potrace 1.16, written by Peter Selinger 2001-2019
</metadata>
<g transform="translate(0.000000,100.000000) scale(0.009980,-0.009980)"
fill="currentColor" stroke="#000000" stroke-width="400%">
<path d="M4526 9898 c-7 -4 -21 -5 -32 -4 -10 2 -31 0 -46 -5 -19 -5 -28 -4
-28 4 0 9 -2 9 -8 1 -7 -11 -16 -13 -77 -16 -19 -1 -35 -5 -35 -9 0 -4 -14 -5
-30 -4 -17 1 -32 -1 -35 -5 -3 -4 -18 -6 -35 -5 -16 1 -30 -1 -30 -5 0 -4 -13
-6 -30 -5 -16 1 -30 -1 -30 -5 0 -3 -6 -7 -12 -7 -12 -1 -95 -17 -148 -29 -14
-3 -29 -6 -35 -7 -5 -2 -14 -5 -20 -8 -5 -4 -18 -5 -27 -4 -10 2 -18 -1 -18
-5 0 -5 -9 -7 -20 -5 -11 2 -22 0 -25 -5 -3 -5 -14 -7 -25 -5 -11 2 -20 -1
-20 -6 0 -6 -4 -8 -9 -4 -5 3 -12 1 -16 -4 -3 -5 -14 -8 -25 -6 -11 2 -20 0
-20 -6 0 -5 -3 -8 -7 -8 -5 1 -11 0 -15 -1 -5 -1 -11 -3 -15 -4 -5 -1 -35 -10
-68 -21 -33 -10 -67 -19 -75 -20 -8 0 -26 -7 -38 -14 -13 -7 -37 -14 -54 -15
-16 -1 -34 -9 -39 -17 -5 -8 -9 -10 -9 -5 0 5 -7 3 -15 -4 -13 -11 -15 -10 -9
6 5 17 4 17 -8 4 -7 -9 -20 -15 -28 -15 -8 1 -23 -8 -33 -19 -17 -20 -17 -21
-11 -1 5 17 4 18 -8 5 -7 -9 -20 -15 -28 -15 -8 1 -23 -8 -33 -19 -17 -20 -17
-21 -11 -1 6 20 5 20 -10 1 -9 -11 -16 -16 -16 -10 0 5 -7 0 -15 -10 -10 -13
-15 -15 -15 -6 0 9 -7 6 -20 -8 -12 -12 -25 -22 -31 -22 -5 0 -26 -7 -47 -17
-20 -9 -40 -17 -44 -18 -5 -2 -10 -4 -13 -5 -3 -1 -13 -3 -23 -4 -11 0 -26 -7
-35 -15 -10 -7 -17 -10 -17 -5 0 5 -7 0 -15 -10 -8 -11 -18 -17 -21 -13 -4 4
-13 -1 -20 -11 -11 -14 -13 -14 -14 -2 0 11 -3 10 -11 -4 -9 -14 -13 -15 -19
-5 -6 9 -12 6 -21 -14 -13 -28 -33 -39 -23 -12 4 8 3 15 0 15 -4 0 -11 -12
-17 -27 -7 -17 -13 -23 -16 -15 -4 10 -9 8 -19 -5 -11 -14 -13 -15 -14 -3 0
10 -9 4 -25 -15 -18 -22 -23 -24 -19 -10 5 17 2 16 -17 -6 -26 -28 -79 -64
-79 -53 0 4 -9 -1 -20 -11 -11 -10 -20 -14 -20 -10 0 4 -9 0 -20 -10 -11 -10
-20 -14 -20 -10 0 5 -16 -6 -35 -25 -19 -19 -35 -30 -35 -25 0 5 -14 -4 -31
-21 -24 -23 -29 -25 -23 -9 4 12 -17 -2 -52 -35 -32 -30 -53 -48 -46 -40 26
31 10 32 -22 1 -18 -18 -40 -33 -47 -34 -22 -4 -40 -18 -34 -27 3 -4 -2 -13
-10 -20 -13 -11 -14 -10 -9 6 7 19 7 19 -14 0 -12 -10 -19 -23 -15 -29 4 -6 0
-8 -11 -4 -13 5 -19 1 -23 -13 -3 -12 -14 -20 -27 -20 -22 -1 -100 -59 -78
-60 6 0 12 5 12 10 0 6 5 10 11 10 8 0 7 -5 -1 -15 -7 -9 -22 -14 -34 -13 -16
2 -20 -2 -18 -16 2 -11 -1 -15 -7 -11 -6 3 -11 -2 -12 -12 0 -10 -3 -13 -6 -6
-7 20 -53 -15 -46 -34 4 -11 2 -14 -5 -9 -8 4 -12 0 -13 -11 0 -10 -3 -13 -6
-6 -6 17 -50 -12 -58 -38 -4 -11 -10 -17 -15 -14 -5 3 -30 -15 -56 -40 -26
-25 -43 -45 -38 -45 5 -1 -6 -7 -24 -15 -18 -8 -32 -18 -31 -22 4 -22 -3 -32
-24 -35 -12 -2 -21 -9 -19 -16 1 -7 -5 -15 -13 -18 -8 -4 -15 -11 -15 -18 0
-12 -38 -40 -55 -41 -5 0 -11 -10 -13 -22 -3 -21 -13 -28 -34 -24 -4 0 -12 -8
-18 -19 -8 -15 -8 -20 1 -20 16 0 5 -11 -14 -14 -20 -3 -99 -84 -93 -95 3 -4
-6 -13 -20 -20 -14 -6 -23 -15 -20 -20 3 -5 -2 -12 -11 -15 -15 -6 -15 -8 -3
-16 13 -8 12 -10 -3 -10 -11 0 -15 -4 -11 -12 5 -7 2 -9 -9 -5 -19 7 -54 -39
-34 -46 7 -3 4 -6 -6 -6 -10 -1 -16 -5 -13 -10 3 -5 -1 -11 -9 -15 -8 -3 -15
-13 -15 -23 0 -14 -2 -15 -9 -4 -6 9 -11 10 -15 2 -4 -6 -4 -11 0 -11 3 0 -4
-9 -17 -20 -13 -10 -20 -19 -15 -20 4 0 -2 -9 -15 -20 -17 -14 -20 -20 -9 -20
8 -1 2 -8 -15 -15 -16 -8 -24 -14 -17 -15 6 0 12 -5 12 -11 0 -5 -4 -8 -9 -5
-4 3 -17 -4 -27 -16 -19 -21 -19 -21 0 -14 16 5 17 4 6 -8 -6 -9 -17 -14 -23
-13 -7 1 -11 -3 -10 -9 1 -6 -14 -30 -33 -53 -20 -22 -30 -41 -23 -41 7 0 -7
-20 -31 -45 -24 -25 -38 -45 -30 -45 9 0 4 -10 -13 -28 -15 -16 -25 -31 -22
-33 3 -3 -9 -18 -25 -34 -17 -16 -30 -34 -30 -41 0 -7 -10 -20 -22 -28 -15
-11 -18 -16 -8 -16 10 0 6 -7 -10 -20 -17 -13 -20 -20 -10 -20 10 0 4 -9 -15
-26 -22 -19 -25 -24 -10 -19 15 4 12 -1 -10 -20 -23 -20 -25 -25 -10 -21 15 4
12 -1 -10 -19 -19 -16 -25 -25 -15 -25 12 -1 11 -3 -3 -14 -13 -10 -15 -15 -5
-19 8 -3 2 -9 -15 -16 -16 -6 -25 -16 -22 -22 4 -6 -1 -17 -11 -24 -15 -11
-16 -14 -4 -15 12 0 10 -4 -4 -15 -14 -11 -16 -15 -5 -15 10 -1 9 -5 -5 -15
-14 -11 -16 -15 -5 -15 10 -1 8 -5 -6 -16 -11 -8 -20 -18 -21 -22 0 -4 -4 -15
-8 -24 -4 -9 -9 -25 -11 -35 -2 -10 -4 -19 -5 -20 -2 -2 -3 -9 -4 -15 0 -7 -6
-13 -13 -13 -17 0 -29 -15 -12 -15 11 -1 10 -3 -2 -10 -10 -6 -15 -18 -12 -33
3 -17 -3 -31 -18 -46 -15 -13 -18 -21 -9 -21 9 0 7 -5 -6 -15 -10 -8 -15 -15
-10 -15 6 0 2 -6 -7 -13 -10 -6 -18 -26 -20 -42 -1 -17 -6 -33 -12 -37 -5 -4
-11 -12 -11 -18 -1 -5 -3 -12 -4 -15 -1 -3 -3 -18 -4 -33 0 -15 -8 -39 -17
-52 -9 -14 -15 -33 -13 -43 1 -9 -2 -15 -7 -11 -8 5 -13 -10 -10 -30 1 -5 -1
-16 -5 -25 -4 -9 -8 -23 -10 -31 -2 -8 -7 -16 -13 -18 -5 -2 -8 -14 -5 -27 2
-13 -3 -30 -12 -39 -11 -12 -12 -16 -2 -16 9 0 9 -3 2 -8 -6 -4 -10 -15 -8
-24 1 -10 -2 -20 -7 -24 -5 -3 -7 -10 -4 -15 4 -5 2 -9 -4 -9 -5 0 -8 -9 -6
-20 2 -11 -1 -22 -6 -25 -5 -4 -7 -11 -4 -16 4 -5 2 -9 -4 -9 -5 0 -8 -8 -6
-17 1 -10 0 -22 -4 -28 -3 -5 -6 -14 -8 -20 -8 -39 -13 -57 -21 -89 -6 -20 -8
-36 -6 -36 3 0 -1 -10 -8 -22 -6 -13 -11 -38 -9 -55 1 -18 -2 -33 -8 -33 -6 0
-8 -7 -5 -15 4 -9 0 -15 -7 -15 -11 0 -11 -3 1 -10 8 -5 10 -10 4 -10 -7 0
-10 -13 -9 -30 1 -16 -1 -30 -5 -30 -4 0 -6 -14 -5 -30 1 -17 -1 -32 -5 -35
-4 -3 -6 -18 -5 -35 1 -16 0 -30 -4 -30 -3 0 -7 -15 -8 -33 -2 -28 -8 -62 -13
-77 -1 -3 -2 -29 -2 -57 -1 -29 -4 -53 -7 -53 -3 0 -6 -216 -6 -480 0 -264 4
-480 8 -480 5 0 8 -24 7 -53 -1 -28 -1 -54 0 -57 5 -16 16 -82 23 -145 2 -11
5 -24 8 -30 3 -5 5 -22 4 -37 -1 -16 1 -28 5 -28 4 0 6 -13 5 -30 -1 -17 2
-30 9 -30 6 0 4 -5 -4 -10 -12 -7 -12 -10 -1 -10 7 0 11 -6 7 -15 -3 -8 -2
-15 3 -15 5 0 8 -15 8 -33 -1 -18 3 -39 8 -47 5 -8 9 -26 10 -40 1 -14 4 -30
8 -36 3 -6 9 -24 12 -40 10 -46 10 -48 16 -59 4 -5 5 -18 4 -27 -2 -10 1 -18
6 -18 6 0 8 -4 4 -9 -3 -5 -1 -12 4 -16 5 -3 8 -14 6 -25 -2 -11 1 -20 6 -20
6 0 8 -4 4 -9 -3 -5 -1 -12 4 -15 5 -4 8 -14 7 -24 -2 -9 2 -20 8 -24 7 -5 7
-8 -2 -8 -10 0 -9 -4 2 -16 9 -9 14 -26 12 -40 -3 -13 -1 -24 4 -24 9 0 32
-61 29 -76 -3 -20 2 -35 10 -30 5 4 8 -2 7 -11 -2 -10 4 -29 13 -43 9 -13 17
-37 17 -52 1 -15 3 -30 4 -33 1 -3 3 -10 4 -15 0 -6 6 -14 11 -18 6 -4 11 -20
12 -37 2 -16 10 -36 20 -42 9 -7 13 -13 7 -13 -5 0 0 -7 10 -15 14 -11 16 -15
5 -15 -11 -1 -11 -3 3 -13 9 -7 18 -22 20 -32 1 -11 8 -23 13 -27 6 -5 4 -8
-5 -8 -11 -1 -10 -4 4 -15 13 -10 15 -15 6 -15 -7 0 -10 -3 -6 -8 4 -4 13 -7
19 -7 7 0 13 -6 13 -12 1 -7 2 -14 4 -15 1 -2 3 -11 5 -21 2 -10 7 -26 11 -35
4 -9 8 -21 8 -25 1 -4 8 -12 16 -17 8 -5 11 -12 7 -16 -4 -4 1 -13 11 -20 13
-10 14 -13 3 -14 -11 0 -9 -4 5 -15 14 -11 16 -15 4 -15 -12 -1 -11 -4 4 -15
10 -7 15 -18 11 -24 -3 -6 6 -16 22 -22 17 -7 23 -13 15 -16 -10 -4 -8 -9 5
-19 14 -11 15 -13 3 -14 -10 0 -4 -9 15 -25 22 -18 25 -23 10 -19 -15 4 -13
-1 10 -21 22 -19 25 -24 10 -20 -15 5 -12 0 10 -19 19 -17 25 -26 15 -26 -10
0 -7 -6 9 -19 18 -13 20 -20 10 -23 -10 -3 -8 -8 9 -17 12 -6 22 -17 22 -24 0
-8 13 -26 30 -42 16 -16 28 -31 25 -34 -3 -2 7 -17 22 -33 17 -18 22 -28 13
-28 -8 0 6 -20 30 -45 24 -25 38 -45 31 -45 -7 0 3 -19 23 -41 19 -23 34 -46
33 -52 -1 -6 3 -11 10 -12 7 0 18 -6 25 -13 11 -11 9 -12 -7 -6 -20 7 -20 7
-1 -14 10 -12 23 -19 27 -16 5 3 9 0 9 -5 0 -6 -6 -11 -12 -11 -7 -1 1 -7 17
-15 17 -7 23 -14 15 -15 -11 0 -8 -6 9 -20 13 -11 19 -20 15 -20 -5 -1 2 -10
16 -21 14 -12 24 -23 23 -25 -2 -2 -1 -4 2 -4 10 0 42 -35 38 -42 -2 -5 4 -8
14 -9 10 0 13 -3 6 -6 -20 -7 15 -53 34 -46 11 4 14 2 9 -5 -4 -7 -2 -12 4
-12 6 0 8 -5 5 -10 -3 -6 1 -13 9 -16 9 -3 13 -10 10 -15 -3 -5 6 -14 20 -20
14 -7 23 -16 20 -20 -8 -13 81 -99 102 -99 15 0 16 -2 5 -9 -11 -7 -9 -13 8
-30 12 -12 26 -19 31 -16 5 3 10 -5 12 -17 2 -13 8 -23 13 -23 17 -1 55 -29
55 -41 0 -7 7 -14 15 -18 8 -3 14 -11 13 -18 -2 -7 7 -14 20 -16 20 -3 27 -13
23 -35 -1 -4 13 -14 31 -22 18 -8 29 -14 24 -15 -5 0 12 -20 38 -45 26 -25 51
-43 56 -40 5 3 11 -3 15 -14 8 -26 52 -55 58 -38 3 7 6 4 6 -6 1 -11 5 -15 13
-11 7 5 9 2 5 -9 -7 -19 39 -54 46 -34 3 7 6 4 6 -6 1 -10 6 -15 12 -12 6 4 9
0 7 -11 -2 -14 2 -18 16 -16 10 2 15 -1 12 -6 -8 -13 58 -62 83 -62 12 0 21
-7 21 -15 0 -8 9 -15 20 -15 11 0 20 -6 20 -14 0 -7 7 -19 15 -26 11 -9 15 -9
15 -1 0 7 5 9 10 6 6 -4 8 -10 5 -15 -6 -9 12 -23 34 -27 7 -1 29 -17 49 -35
26 -25 33 -28 28 -13 -4 12 13 0 45 -30 31 -30 49 -42 45 -30 -6 16 -1 14 23
-9 17 -17 31 -26 31 -21 0 5 16 -6 35 -25 19 -19 35 -30 35 -25 0 4 9 0 20
-10 11 -10 20 -14 20 -10 0 4 9 0 20 -10 11 -10 20 -15 20 -11 0 11 53 -25 79
-53 19 -22 22 -23 17 -6 -4 14 1 12 19 -10 16 -19 25 -25 25 -15 1 12 3 11 14
-3 10 -13 15 -15 19 -5 3 8 9 2 16 -14 6 -16 13 -28 17 -28 3 0 4 7 0 15 -3 8
-1 15 4 15 6 0 10 -4 10 -8 0 -5 7 -17 16 -28 15 -19 16 -19 10 1 -5 18 -4 17
14 -4 12 -14 20 -18 20 -10 1 11 4 10 13 -2 7 -9 18 -14 25 -12 6 3 12 1 12
-4 0 -9 48 -33 78 -38 9 -2 19 -4 22 -5 3 -1 8 -2 11 -2 4 1 19 -10 33 -23 14
-13 26 -20 26 -15 0 13 52 -11 67 -30 10 -13 12 -13 13 -1 0 11 4 9 15 -5 8
-10 15 -15 15 -10 0 6 7 1 16 -10 15 -19 16 -19 10 1 -6 20 -6 19 11 -1 10
-11 25 -20 33 -19 8 0 21 -6 28 -15 12 -13 13 -12 8 5 -6 20 -6 19 11 -1 10
-11 25 -20 33 -19 8 0 21 -6 28 -15 12 -13 13 -13 8 4 -6 16 -4 17 9 6 8 -7
15 -9 15 -4 0 5 4 3 9 -5 5 -8 23 -16 39 -17 17 -1 41 -8 54 -15 12 -7 30 -14
38 -14 8 -1 42 -10 75 -20 33 -11 63 -20 68 -21 4 -1 10 -3 15 -4 4 -1 10 -2
15 -1 4 0 7 -3 7 -8 0 -6 9 -8 20 -6 11 2 22 -1 25 -6 4 -5 11 -7 16 -4 5 4 9
2 9 -4 0 -5 9 -8 20 -6 11 2 22 0 25 -5 3 -5 14 -7 25 -5 11 2 20 0 20 -5 0
-4 8 -7 18 -5 9 1 22 0 27 -4 6 -3 15 -6 20 -8 6 -1 21 -4 35 -7 53 -12 136
-28 148 -29 6 0 12 -4 12 -7 0 -4 14 -6 30 -5 17 1 30 -1 30 -5 0 -4 16 -6 35
-4 19 1 35 -1 35 -5 0 -5 14 -7 30 -6 17 1 30 0 30 -4 0 -4 15 -7 33 -8 29 -1
67 -5 167 -19 19 -2 58 -6 85 -7 28 -1 55 -5 60 -8 10 -5 692 -4 708 1 4 1 28
3 55 5 26 1 58 5 72 8 25 7 127 18 188 20 17 1 32 4 32 8 0 4 14 5 30 4 17 -1
32 1 35 5 3 4 18 6 35 5 16 -1 30 1 30 5 0 4 12 6 28 5 15 -1 29 2 32 6 3 4
26 10 52 13 26 4 53 9 60 11 7 2 27 7 43 10 45 9 49 10 60 16 6 4 18 5 28 4 9
-2 17 1 17 5 0 5 9 7 20 5 11 -2 22 0 25 5 3 5 14 7 25 5 11 -2 20 1 20 6 0 6
4 8 9 4 5 -3 12 -1 16 4 3 5 14 8 25 6 11 -2 20 0 20 6 0 5 3 8 8 8 4 -1 10 0
15 1 4 1 10 3 15 4 4 1 34 10 67 21 33 10 67 19 75 20 8 0 26 7 38 14 13 7 37
14 54 15 16 1 34 9 39 17 5 8 9 10 9 5 0 -5 7 -3 15 4 13 11 15 10 9 -6 -5
-17 -4 -17 8 -4 7 9 20 15 28 15 8 -1 23 8 33 19 17 20 17 21 11 1 -5 -17 -4
-18 8 -5 7 9 20 15 28 15 8 -1 23 8 33 19 17 20 17 21 11 1 -6 -20 -5 -20 10
-1 9 11 16 16 16 10 0 -5 7 0 15 10 11 14 15 16 15 5 1 -12 3 -12 13 1 15 19
67 43 67 30 0 -5 12 2 26 15 14 13 29 24 33 23 3 0 8 1 11 2 3 1 13 3 22 5 30
5 78 29 78 38 0 5 6 7 13 4 6 -2 17 3 24 12 9 12 12 13 13 2 0 -8 8 -4 20 10
18 21 19 22 14 4 -6 -20 -5 -20 10 -1 9 11 16 23 16 28 0 4 4 8 10 8 5 0 7 -7
4 -15 -4 -8 -3 -15 0 -15 4 0 11 12 17 27 7 17 13 23 16 15 4 -10 9 -8 19 5
11 14 13 15 14 3 0 -10 9 -4 25 15 18 22 23 24 19 10 -5 -16 -2 -15 17 7 24
26 119 83 119 71 0 -3 9 2 20 12 11 10 20 14 20 10 0 -5 16 6 35 25 19 19 35
30 35 25 0 -5 14 4 31 21 24 23 29 25 23 9 -4 -12 14 0 45 30 32 30 49 42 45
30 -5 -15 2 -12 28 13 20 18 42 34 49 35 22 4 40 18 34 27 -3 5 -1 11 5 15 5
3 10 1 10 -6 0 -8 7 -5 20 6 11 10 17 22 13 28 -4 6 0 8 11 4 13 -5 19 -1 23
13 4 14 14 20 32 20 17 0 22 3 13 9 -10 6 -10 10 3 21 12 10 15 10 15 0 0 -9
6 -8 23 3 12 8 21 20 19 27 -1 6 6 10 15 8 13 -2 17 3 15 16 -2 11 1 15 7 11
6 -3 11 2 12 12 0 10 3 13 6 6 7 -20 53 15 46 34 -4 11 -2 14 5 9 8 -4 12 0
13 11 0 10 3 13 6 6 6 -17 50 12 58 38 4 11 10 17 15 14 5 -3 30 15 56 40 26
25 43 45 38 45 -5 1 6 7 24 15 18 8 32 18 31 22 -4 22 3 32 24 35 12 2 21 9
19 16 -1 7 5 15 13 18 8 4 15 12 15 20 0 8 9 14 20 14 11 0 19 5 18 12 -2 7 4
12 12 13 8 0 16 10 18 23 2 12 8 20 13 17 5 -4 9 -1 9 5 0 6 4 9 9 5 6 -3 15
3 20 14 8 14 8 21 -2 24 -6 3 -3 6 7 6 22 1 109 87 102 100 -3 4 6 13 20 20
14 6 23 15 20 20 -3 5 1 12 10 15 8 3 12 10 9 16 -3 5 -1 10 5 10 6 0 8 5 4
12 -5 7 -2 9 9 5 19 -7 54 39 34 46 -7 3 -4 6 6 6 10 1 16 4 14 9 -4 7 28 42
38 42 3 0 6 3 7 8 1 4 11 15 22 24 12 10 17 17 12 18 -4 0 2 9 15 20 17 14 20
20 9 20 -8 1 -1 7 15 15 17 7 24 14 18 14 -7 1 -13 6 -13 12 0 5 4 8 9 5 4 -3
17 4 27 16 19 21 19 21 0 14 -16 -5 -17 -4 -6 8 6 9 17 14 23 13 7 -1 11 3 10
9 -1 6 14 30 33 53 20 22 30 41 23 41 -7 0 7 20 31 45 24 25 38 45 30 45 -9 0
-4 10 13 28 15 16 25 31 22 33 -3 3 9 18 25 34 17 16 30 34 30 42 0 7 10 18
22 24 17 9 19 14 9 17 -10 3 -8 10 10 23 16 13 19 19 9 19 -10 0 -4 9 15 26
22 19 25 24 10 19 -15 -4 -12 1 10 20 23 20 25 25 10 21 -15 -4 -12 1 10 19
19 16 25 25 15 25 -12 1 -11 3 3 14 13 10 15 15 5 19 -8 3 -2 9 15 16 16 6 25
16 22 22 -4 6 1 17 11 25 18 15 18 15 -1 10 -18 -5 -17 -4 4 14 14 12 18 20
10 20 -11 1 -10 4 2 13 9 7 14 18 12 25 -3 6 -1 12 4 12 9 0 33 48 38 78 2 9
4 18 5 20 2 1 3 8 4 15 0 6 6 12 13 12 6 0 15 3 19 8 4 4 1 7 -6 7 -9 0 -7 5
6 15 10 8 13 15 7 15 -16 0 4 49 27 67 13 10 13 12 1 13 -11 0 -9 4 5 15 10 8
15 15 10 15 -6 0 -2 6 7 13 10 6 18 26 20 42 1 17 7 33 12 37 6 4 11 12 11 18
1 5 3 12 4 15 1 3 3 18 4 33 0 15 8 39 17 52 9 14 15 33 13 43 -1 9 2 15 7 11
8 -5 13 10 10 30 -3 15 20 76 29 76 5 0 7 11 4 24 -2 14 3 31 12 40 11 12 12
16 2 16 -9 0 -9 3 -2 8 6 4 10 15 8 24 -1 10 2 20 7 24 5 3 7 10 4 15 -4 5 -2
9 4 9 5 0 8 9 6 20 -2 11 1 22 6 25 5 4 7 11 4 16 -4 5 -2 9 4 9 5 0 8 8 6 17
-1 10 0 23 4 28 6 11 6 13 16 59 3 16 9 34 12 40 4 6 7 22 8 36 1 14 5 32 10
40 5 8 9 29 8 47 0 18 3 33 8 33 5 0 6 7 3 15 -4 9 0 15 7 15 11 0 11 3 -1 10
-8 5 -10 10 -4 10 7 0 10 13 9 30 -1 17 1 30 5 30 4 0 6 12 5 28 -1 15 1 32 4
37 3 6 6 19 8 30 3 30 13 98 16 115 1 8 6 21 10 28 5 6 5 12 0 12 -4 0 -6 22
-5 50 2 27 7 50 11 50 4 0 6 26 6 57 -1 32 1 63 4 68 7 13 8 706 0 710 -3 2
-5 31 -4 64 1 34 -2 61 -7 61 -4 0 -6 10 -4 23 2 12 0 34 -5 50 -5 16 -4 27 2
27 6 0 7 6 2 13 -9 14 -12 31 -16 74 -1 18 -5 33 -8 33 -4 0 -5 14 -4 30 1 17
-1 32 -5 35 -4 3 -6 18 -5 35 1 16 -1 30 -5 30 -4 0 -6 14 -5 30 1 17 -2 30
-9 30 -6 0 -4 5 4 10 12 7 12 10 1 10 -7 0 -11 6 -7 15 3 8 1 15 -5 15 -6 0
-9 15 -8 33 2 18 -1 39 -6 47 -5 8 -9 26 -10 40 -1 14 -4 30 -8 36 -3 6 -9 24
-12 40 -10 46 -10 48 -16 59 -4 6 -5 18 -4 28 2 9 -1 17 -6 17 -6 0 -8 4 -4 9
3 5 1 12 -4 16 -5 3 -8 14 -6 25 2 11 -1 20 -6 20 -6 0 -8 4 -4 9 3 5 1 12 -4
15 -5 4 -8 14 -7 24 2 9 -2 20 -8 24 -7 5 -7 8 2 8 10 0 9 4 -2 16 -9 9 -14
26 -12 39 3 13 0 25 -5 27 -6 2 -11 10 -13 18 -2 8 -6 22 -10 31 -4 9 -6 20
-5 25 3 20 -2 35 -10 30 -5 -4 -8 2 -7 11 2 10 -4 29 -13 43 -9 13 -17 37 -17
52 -1 15 -3 30 -4 33 -1 3 -3 10 -4 15 0 6 -5 14 -11 18 -5 4 -11 20 -12 37
-2 16 -10 36 -20 42 -9 7 -13 13 -7 13 5 0 0 7 -10 15 -14 11 -16 15 -5 15 10
1 9 4 -5 15 -10 7 -19 28 -21 45 -1 18 -8 36 -16 41 -12 7 -12 9 0 9 8 0 11 3
7 8 -4 4 -13 7 -19 7 -7 0 -13 6 -13 13 -1 6 -2 13 -4 15 -1 1 -3 11 -5 22 -5
27 -27 68 -45 82 -13 11 -13 12 -1 13 11 0 9 4 -5 15 -12 9 -14 14 -5 15 8 0
4 8 -10 20 -21 18 -22 19 -4 14 19 -5 19 -5 1 10 -10 8 -15 19 -11 25 3 6 -6
16 -22 22 -17 7 -23 13 -15 16 10 4 8 9 -5 19 -14 11 -15 13 -3 14 10 0 4 9
-15 25 -22 18 -25 23 -10 19 15 -4 13 1 -10 21 -22 19 -25 24 -10 20 15 -5 12
0 -10 19 -19 17 -25 26 -15 26 10 0 7 7 -10 20 -16 13 -20 20 -10 20 10 0 7 5
-8 16 -12 8 -22 21 -22 28 0 7 -13 25 -30 41 -16 16 -28 31 -25 34 3 2 -7 17
-22 33 -17 18 -22 28 -13 28 8 0 -6 20 -30 45 -24 25 -38 45 -31 45 7 0 -3 19
-23 41 -19 23 -34 47 -33 53 1 6 -3 10 -10 9 -6 -1 -17 4 -23 13 -11 12 -10
13 6 8 19 -7 19 -7 0 14 -10 12 -24 19 -30 15 -6 -4 -5 1 2 10 12 14 10 17
-13 23 -17 4 -23 9 -15 14 8 5 5 12 -11 24 -13 9 -19 16 -14 16 6 1 -1 10 -15
21 -14 12 -24 23 -22 25 1 2 0 4 -3 4 -10 0 -42 35 -38 43 2 4 -4 7 -14 8 -10
0 -13 3 -6 6 20 7 -15 53 -34 46 -11 -4 -14 -2 -9 5 4 8 0 12 -11 12 -15 0
-16 2 -3 10 12 8 12 10 -3 16 -9 3 -14 10 -11 15 3 5 -6 14 -20 20 -14 7 -23
16 -20 20 6 11 -73 92 -93 95 -19 3 -30 14 -14 14 9 0 9 5 1 20 -6 11 -14 19
-18 19 -21 -4 -31 3 -34 24 -2 12 -10 22 -18 22 -8 1 -14 6 -13 13 2 7 -6 12
-17 12 -11 0 -20 6 -20 14 0 8 -7 16 -15 20 -8 3 -14 11 -13 17 2 7 -6 15 -17
18 -11 3 -21 13 -23 21 -2 8 -10 20 -18 25 -9 6 -40 34 -70 63 -30 29 -59 50
-64 47 -4 -3 -11 3 -15 14 -8 26 -52 55 -58 38 -3 -7 -6 -4 -6 6 -1 11 -5 15
-13 11 -7 -5 -9 -2 -5 9 7 19 -39 54 -46 34 -3 -7 -6 -4 -6 6 -1 10 -6 15 -12
12 -6 -4 -9 0 -7 11 2 13 -2 18 -15 16 -9 -2 -16 2 -15 8 2 7 -7 19 -19 27
-17 11 -23 12 -23 3 0 -10 -3 -10 -15 0 -13 11 -13 15 -3 21 9 6 4 9 -13 9
-18 0 -28 6 -32 20 -4 14 -10 18 -23 13 -11 -4 -15 -2 -11 4 4 6 -3 19 -15 29
-21 19 -21 19 -14 0 5 -16 4 -17 -9 -6 -8 7 -13 16 -10 20 6 9 -12 23 -34 27
-7 1 -29 17 -49 35 -26 25 -33 28 -28 13 4 -12 -13 0 -45 30 -31 30 -49 42
-45 30 6 -16 1 -14 -23 9 -17 17 -31 26 -31 21 0 -5 -16 6 -35 25 -19 19 -35
30 -35 25 0 -4 -9 0 -20 10 -11 10 -20 15 -20 12 0 -12 -95 45 -119 71 -19 22
-22 23 -17 7 4 -14 -1 -12 -19 10 -16 19 -25 25 -25 15 -1 -12 -3 -11 -14 3
-10 13 -15 15 -19 5 -3 -8 -9 -2 -16 15 -6 15 -13 27 -17 27 -3 0 -4 -7 0 -15
10 -27 -10 -16 -23 12 -9 20 -15 23 -21 14 -6 -10 -10 -9 -19 5 -8 14 -11 15
-11 4 -1 -12 -3 -12 -14 2 -7 10 -16 15 -20 11 -4 -4 -11 -1 -16 7 -5 8 -13
15 -17 16 -4 0 -16 4 -25 8 -9 4 -25 9 -35 11 -10 2 -20 4 -23 5 -3 1 -8 2
-11 2 -4 -1 -19 10 -33 23 -14 13 -26 20 -26 15 0 -13 -52 11 -67 30 -10 13
-12 13 -13 1 0 -11 -4 -9 -15 5 -8 10 -15 15 -15 10 0 -6 -7 -1 -16 10 -15 19
-16 19 -10 -1 6 -20 6 -19 -11 1 -10 11 -25 20 -33 19 -8 0 -21 6 -28 15 -12
13 -13 12 -8 -5 l6 -20 -15 20 c-9 11 -28 20 -43 20 -15 0 -33 4 -39 8 -7 5
-13 5 -13 0 0 -4 -4 -2 -9 6 -5 8 -23 16 -39 17 -17 1 -41 8 -54 15 -12 7 -30
14 -38 14 -8 1 -42 10 -75 20 -33 11 -63 20 -67 21 -5 1 -11 3 -15 4 -5 1 -11
2 -15 1 -5 0 -8 3 -8 8 0 6 -9 8 -20 6 -11 -2 -22 1 -25 6 -4 5 -11 7 -16 4
-5 -4 -9 -2 -9 4 0 5 -9 8 -20 6 -11 -2 -22 0 -25 5 -3 5 -14 7 -25 5 -11 -2
-20 0 -20 5 0 4 -8 7 -17 5 -10 -1 -22 0 -28 4 -11 6 -14 7 -60 16 -16 3 -37
8 -45 10 -21 6 -82 17 -97 18 -7 0 -13 4 -13 7 0 4 -13 6 -30 5 -16 -1 -30 1
-30 5 0 4 -12 6 -27 5 -16 -1 -32 1 -38 4 -5 3 -21 7 -35 8 -14 2 -43 6 -65 8
-22 3 -47 6 -55 7 -8 0 -18 6 -22 12 -5 7 -8 7 -8 0 0 -7 -19 -7 -57 -2 -71
10 -979 16 -997 6z"/>
</g>
</svg>
