<?xml version="1.0" standalone="no"?>
<!DOCTYPE svg PUBLIC "-//W3C//DTD SVG 20010904//EN"
 "http://www.w3.org/TR/2001/REC-SVG-20010904/DTD/svg10.dtd">
<svg version="1.0" xmlns="http://www.w3.org/2000/svg"
 width="40" height="40" viewBox="0 0 200 200"
 preserveAspectRatio="xMidYMid meet">
<g transform="translate(0,200) scale(0.02,-0.02)"
fill="#0000ff" stroke="none">
<path d="M14 9996 c-3 -8 0 -2164 5 -4792 6 -2629 11 -4873 11 -4988 l0 -208
2673 6 c1469 3 3718 9 4996 12 l2323 6 -6 147 c-15 319 -74 942 -106 1106 -5
28 -19 109 -30 180 -11 72 -27 166 -36 210 -8 44 -19 106 -24 137 -6 32 -15
69 -20 84 -6 14 -10 41 -10 60 0 19 -4 34 -10 34 -5 0 -10 13 -10 30 0 16 -19
96 -42 177 -23 81 -41 156 -40 166 0 9 -21 97 -49 194 -27 97 -49 182 -49 189
0 7 -5 14 -11 16 -6 2 -13 25 -16 51 -3 26 -10 47 -14 47 -5 0 -9 16 -9 35 0
19 -4 35 -8 35 -8 0 -35 77 -47 138 -4 17 -11 32 -16 32 -5 0 -9 16 -9 35 0
19 -4 35 -9 35 -4 0 -18 35 -31 78 -13 42 -26 79 -30 82 -3 3 -17 42 -30 88
-13 45 -27 82 -31 82 -4 0 -10 12 -14 27 -3 15 -11 31 -17 34 -5 3 -12 26 -15
50 -4 24 -14 51 -23 59 -10 8 -19 36 -22 64 -3 27 -10 51 -16 55 -5 3 -15 25
-22 48 -7 24 -16 43 -20 43 -4 0 -13 20 -20 46 -8 29 -17 43 -26 40 -14 -5
-29 44 -25 83 2 17 -1 22 -11 18 -11 -4 -21 14 -38 66 -12 40 -31 79 -41 88
-10 8 -21 27 -24 42 -4 15 -11 27 -16 27 -5 0 -9 14 -9 30 0 17 -5 30 -11 30
-6 0 -8 9 -4 22 6 16 4 20 -7 15 -11 -4 -20 10 -33 51 -10 31 -26 64 -36 73
-10 8 -21 27 -24 42 -4 15 -11 27 -16 27 -4 0 -16 26 -26 58 -10 31 -23 63
-30 70 -7 7 -13 20 -13 28 0 8 -5 14 -11 14 -5 0 -7 5 -4 10 3 6 -1 17 -9 26
-9 8 -16 22 -16 30 0 8 -4 14 -9 14 -5 0 -13 10 -17 23 -4 12 -15 29 -24 37
-9 8 -15 21 -13 28 3 6 -3 12 -12 12 -9 0 -13 5 -10 10 3 6 1 10 -5 10 -7 0
-10 7 -6 15 3 9 0 15 -10 15 -8 0 -12 5 -9 10 3 6 1 10 -5 10 -7 0 -10 6 -7
14 3 8 -3 22 -13 31 -11 10 -18 21 -15 25 2 4 -9 20 -25 35 -16 15 -27 32 -24
37 3 4 1 8 -5 8 -6 0 -8 7 -5 15 4 10 0 15 -11 15 -9 0 -13 4 -10 10 3 6 1 10
-5 10 -7 0 -10 7 -6 15 3 9 0 15 -10 15 -12 0 -12 4 -4 20 9 17 7 20 -15 26
-14 3 -22 10 -19 15 3 5 -1 9 -9 9 -18 0 -31 30 -18 43 9 9 -2 21 -57 68 -10
8 -10 14 -1 25 9 11 9 14 -1 14 -20 0 -70 60 -63 76 3 8 -5 24 -21 37 -14 13
-26 28 -26 35 0 7 -4 12 -10 12 -5 0 -6 8 -3 17 5 12 2 15 -10 10 -16 -6 -21
2 -18 31 1 6 -3 12 -9 12 -5 0 -10 7 -10 15 0 9 -7 18 -15 21 -8 4 -15 10 -15
15 0 6 -5 15 -10 22 -41 49 -51 63 -56 83 -3 12 -12 25 -20 28 -8 3 -14 12
-14 20 0 8 -9 18 -20 21 -11 3 -20 10 -20 14 0 4 -8 17 -17 29 -38 45 -53 66
-53 74 0 9 -12 25 -41 56 -9 9 -19 25 -22 35 -4 9 -13 17 -22 17 -9 0 -15 9
-15 24 0 15 -7 27 -19 31 -10 3 -24 19 -31 36 -8 18 -18 28 -26 25 -9 -3 -14
2 -14 14 0 24 -37 63 -50 55 -6 -4 -10 5 -10 19 0 14 -4 26 -9 26 -5 0 -13 9
-16 21 -4 12 -12 18 -21 15 -9 -3 -14 1 -14 14 0 11 -16 35 -35 54 -19 20 -35
40 -35 47 0 6 -6 9 -14 6 -9 -4 -19 5 -26 24 -7 16 -37 54 -66 84 -30 30 -54
59 -54 64 0 5 -29 39 -65 76 -36 36 -65 71 -65 76 0 6 -9 8 -20 4 -14 -5 -18
-3 -15 8 7 16 -71 101 -84 92 -5 -2 -12 6 -15 19 -3 14 -15 27 -25 31 -10 3
-24 19 -31 35 -7 16 -21 32 -31 35 -10 4 -19 12 -19 18 -1 7 -12 21 -26 32
-51 39 -74 62 -74 73 0 5 -7 12 -15 16 -8 3 -15 12 -15 21 0 8 -7 15 -16 15
-18 0 -94 72 -94 89 0 6 -9 11 -20 11 -11 0 -24 8 -27 17 -11 29 -83 91 -119
103 -19 6 -34 18 -34 25 0 21 -66 83 -87 81 -10 0 -17 5 -16 12 4 18 -34 52
-52 46 -10 -4 -15 0 -15 10 0 17 -35 57 -47 55 -22 -4 -31 3 -26 19 3 14 -4
22 -26 32 -17 7 -31 16 -31 20 0 5 -13 13 -29 18 -16 6 -32 20 -36 32 -5 14
-13 20 -28 18 -16 -2 -21 2 -19 15 2 9 -1 17 -6 17 -5 0 -18 8 -30 18 -11 9
-30 24 -42 32 -12 8 -30 22 -40 30 -27 21 -55 43 -80 60 -12 8 -39 32 -61 53
-22 20 -46 37 -54 37 -8 0 -15 5 -15 10 0 6 -8 10 -17 8 -12 -2 -17 3 -15 14
2 11 -7 18 -28 23 -17 4 -34 13 -37 21 -3 8 -11 14 -18 14 -7 0 -15 7 -19 15
-3 8 -12 15 -21 15 -8 0 -15 4 -15 9 0 5 -14 14 -31 20 -17 6 -40 20 -50 32
-10 11 -23 18 -28 14 -7 -4 -8 0 -4 11 5 13 3 16 -10 11 -11 -4 -26 3 -42 19
-14 14 -30 22 -35 19 -6 -3 -10 1 -10 9 0 9 -4 16 -10 16 -5 0 -21 12 -35 26
-14 14 -29 23 -32 20 -3 -3 -14 3 -23 15 -10 11 -22 19 -26 18 -22 -4 -34 2
-34 17 0 10 -6 14 -15 10 -9 -3 -29 9 -51 30 -19 20 -38 33 -41 30 -3 -3 -14
4 -25 16 -10 12 -21 19 -24 15 -3 -3 -14 2 -25 11 -11 9 -23 16 -27 15 -4 -1
-17 8 -29 19 -14 13 -23 16 -23 9 0 -7 -11 1 -25 16 -14 16 -24 22 -25 14 0
-8 -9 -2 -21 13 -17 21 -24 25 -30 14 -7 -10 -9 -10 -9 0 0 7 -9 22 -20 34
-13 15 -20 17 -20 8 0 -9 -5 -7 -15 6 -10 13 -14 15 -15 5 0 -8 -10 -2 -25 15
-16 19 -25 24 -25 14 0 -13 -2 -13 -9 -1 -5 8 -16 16 -24 17 -29 4 -57 16 -57
23 0 5 -20 14 -45 21 -24 7 -42 16 -39 21 3 5 2 14 -2 20 -4 8 -9 7 -15 -2 -5
-8 -9 -9 -9 -3 0 6 -20 17 -44 24 -34 9 -43 16 -39 30 3 10 0 21 -6 24 -7 4
-11 -1 -11 -13 0 -12 -4 -21 -10 -21 -5 0 -7 6 -4 14 3 8 1 17 -5 21 -6 3 -11
2 -11 -3 0 -6 -9 -8 -20 -5 -11 3 -20 9 -20 13 0 5 -13 11 -28 15 -15 3 -36
17 -47 31 -14 18 -20 22 -27 12 -6 -10 -8 -10 -8 0 0 6 -7 12 -15 12 -8 0 -15
4 -15 8 0 5 -18 14 -40 21 -25 7 -40 18 -40 27 0 10 -6 14 -15 10 -22 -8 -75
14 -75 31 0 9 -6 13 -15 9 -8 -3 -15 -1 -15 5 0 6 -7 9 -15 5 -8 -3 -15 0 -15
5 0 6 -9 9 -19 6 -15 -3 -18 -1 -14 11 5 11 2 14 -10 9 -10 -4 -17 -2 -17 4 0
6 -7 9 -15 5 -8 -3 -15 0 -15 5 0 6 -9 9 -19 6 -15 -3 -18 -1 -14 11 5 11 2
14 -10 9 -10 -4 -17 -2 -17 4 0 6 -6 9 -14 6 -8 -3 -30 -1 -49 5 -25 8 -34 15
-29 26 4 11 1 14 -10 9 -18 -6 -88 12 -88 24 0 4 -12 10 -27 14 -15 3 -31 11
-34 17 -4 6 -21 11 -38 12 -17 0 -31 4 -31 8 0 3 -13 9 -30 13 -16 4 -30 11
-30 16 0 5 -7 9 -15 9 -8 0 -15 4 -15 9 0 5 -15 12 -32 16 -47 9 -122 37 -129
48 -4 5 -11 7 -16 4 -13 -8 -83 14 -83 25 0 5 -8 8 -17 7 -26 -4 -83 11 -83
22 0 5 -7 9 -15 9 -8 0 -15 4 -15 8 0 5 -14 9 -31 9 -17 0 -34 5 -39 13 -4 7
-12 10 -17 7 -12 -7 -83 13 -83 24 0 4 -14 7 -31 7 -17 -1 -34 4 -37 9 -4 6
-20 11 -36 11 -15 0 -31 4 -35 10 -4 6 -15 11 -26 10 -22 -1 -168 39 -194 53
-45 24 -96 39 -192 58 -59 11 -113 23 -120 26 -16 6 -281 64 -321 70 -31 5
-233 41 -313 55 -27 5 -97 16 -155 24 -58 8 -136 20 -175 26 -38 6 -110 15
-160 20 -49 5 -121 14 -160 19 -38 6 -131 15 -205 21 -74 6 -171 15 -214 21
-44 5 -189 9 -323 9 -199 0 -245 -3 -249 -14z m750 -587 c119 -12 334 -44 426
-64 65 -14 107 -21 300 -51 58 -9 125 -20 150 -25 25 -4 72 -12 105 -18 33 -5
77 -15 99 -21 21 -6 59 -15 85 -20 25 -4 102 -22 171 -39 69 -18 154 -39 190
-48 36 -8 79 -22 95 -29 17 -7 71 -25 120 -39 50 -15 98 -29 108 -32 9 -3 17
-9 17 -13 0 -4 12 -10 28 -13 61 -11 135 -35 142 -47 4 -7 13 -9 19 -6 12 8
81 -13 81 -24 0 -4 12 -7 28 -7 15 0 41 -6 57 -14 17 -7 40 -14 52 -15 12 -2
32 -8 43 -14 12 -7 47 -20 78 -31 79 -27 132 -52 132 -61 0 -4 10 -7 23 -6 13
1 39 -5 58 -14 19 -9 59 -28 90 -42 31 -14 61 -26 67 -26 7 0 12 -6 12 -14 0
-9 16 -17 41 -21 22 -4 43 -13 45 -19 3 -7 19 -13 36 -13 20 0 37 -7 48 -21
11 -14 24 -19 38 -15 14 3 29 -3 47 -21 14 -14 32 -23 40 -20 8 4 15 2 15 -4
0 -5 11 -13 25 -16 14 -4 25 -11 25 -17 0 -6 9 -8 20 -4 11 3 20 2 20 -2 0 -5
24 -17 53 -26 29 -9 62 -25 74 -36 11 -11 39 -25 62 -31 22 -6 41 -15 41 -19
0 -5 11 -12 25 -15 14 -4 25 -11 25 -16 0 -6 7 -10 15 -10 8 0 15 -4 15 -8 0
-5 18 -15 40 -22 22 -7 48 -21 58 -30 10 -9 35 -23 55 -29 20 -7 37 -17 37
-22 0 -5 6 -9 12 -9 20 0 122 -53 140 -73 9 -10 22 -16 27 -12 6 3 11 1 11 -4
0 -6 6 -11 14 -11 8 0 21 -6 28 -14 8 -7 24 -17 36 -20 12 -4 22 -12 22 -17 0
-5 6 -9 14 -9 8 0 21 -6 28 -14 8 -7 24 -17 36 -20 12 -4 22 -14 22 -22 0 -8
6 -14 14 -14 8 0 37 -16 66 -35 29 -19 56 -35 61 -35 4 0 20 -12 34 -26 14
-14 29 -23 32 -20 3 3 14 -4 25 -16 10 -12 21 -18 24 -15 4 3 13 -1 21 -9 8
-8 19 -12 24 -9 5 4 9 -1 9 -10 0 -11 5 -15 14 -12 13 5 27 -3 76 -45 8 -7 18
-13 22 -13 8 0 44 -24 64 -42 7 -7 15 -13 18 -13 3 0 16 -10 29 -22 37 -35 87
-72 116 -85 14 -6 40 -23 56 -37 42 -36 38 -33 155 -121 58 -43 108 -84 112
-90 4 -7 40 -34 79 -61 39 -26 76 -56 83 -66 6 -10 15 -18 20 -18 10 0 107
-81 221 -185 44 -40 131 -119 194 -176 154 -139 461 -454 485 -497 5 -10 33
-42 62 -72 28 -30 65 -71 80 -90 16 -19 36 -42 44 -50 8 -9 33 -40 55 -69 22
-28 64 -80 93 -115 28 -35 52 -67 52 -71 0 -4 12 -19 27 -35 34 -33 37 -38 90
-118 66 -99 136 -192 145 -192 4 0 8 -5 8 -11 0 -5 27 -46 60 -89 33 -43 60
-84 60 -90 0 -11 47 -76 77 -108 7 -7 13 -18 13 -24 0 -5 13 -27 30 -48 17
-21 30 -41 30 -45 0 -4 14 -24 30 -45 17 -21 30 -45 30 -53 0 -8 7 -20 15 -27
8 -6 17 -21 21 -32 3 -11 12 -28 20 -37 8 -9 15 -20 16 -26 1 -5 15 -21 30
-33 16 -13 26 -27 23 -32 -3 -4 2 -13 10 -20 20 -17 65 -95 65 -114 0 -9 4
-16 9 -16 5 0 14 -12 20 -27 6 -16 20 -41 31 -58 22 -34 40 -72 40 -86 0 -5 4
-9 10 -9 5 0 12 -11 16 -25 3 -14 10 -25 14 -25 9 0 66 -115 75 -152 4 -15 13
-29 20 -32 8 -3 17 -21 20 -40 4 -19 13 -37 21 -40 8 -3 14 -15 14 -26 0 -11
4 -20 8 -20 5 0 14 -19 21 -42 7 -22 19 -48 27 -55 8 -8 14 -23 14 -34 0 -10
4 -19 10 -19 5 0 14 -19 20 -42 7 -22 18 -47 26 -55 8 -8 14 -21 14 -29 0 -8
4 -14 8 -14 5 0 17 -27 27 -60 10 -33 22 -60 26 -60 4 0 12 -23 19 -50 7 -27
16 -50 21 -50 4 0 14 -19 21 -42 7 -24 18 -49 25 -56 7 -7 15 -28 19 -47 3
-19 10 -35 15 -35 5 0 14 -20 20 -45 6 -25 14 -45 18 -45 4 0 13 -22 20 -50 7
-27 16 -50 20 -50 4 0 18 -35 31 -77 14 -43 27 -80 31 -83 4 -3 17 -41 30 -85
13 -44 26 -82 30 -85 4 -3 22 -54 40 -115 18 -60 37 -113 41 -116 5 -3 11 -29
15 -57 3 -29 9 -52 13 -52 11 0 175 -579 189 -670 5 -32 19 -90 31 -130 12
-39 22 -88 24 -108 1 -20 10 -68 20 -107 29 -116 38 -157 47 -220 5 -33 15
-100 24 -150 8 -49 22 -139 31 -200 18 -129 18 -130 38 -265 8 -58 16 -121 16
-141 l0 -36 -3217 -6 c-1770 -4 -3761 -7 -4424 -7 l-1206 0 -6 3263 c-4 1794
-7 3792 -7 4441 l0 1179 56 -7 c31 -4 102 -11 158 -17z"/>
</g>
</svg>
