<?xml version="1.0" standalone="no"?>
<!DOCTYPE svg PUBLIC "-//W3C//DTD SVG 20010904//EN"
 "http://www.w3.org/TR/2001/REC-SVG-20010904/DTD/svg10.dtd">
<svg version="1.0" xmlns="http://www.w3.org/2000/svg"
 width="34" height="34" viewBox="0 0 220 220"
 preserveAspectRatio="xMidYMid meet">
<g transform="translate(10,210) scale(0.02,-0.02)"
fill="currentColor" stroke="#000000" stroke-width="200%">
<path d="M35 10019 c-5 -6 -27 -9980 -23 -9985 7 -6 9965 -24 9982 -18 17 6
18 18 12 153 -15 319 -74 942 -106 1106 -5 28 -19 109 -30 180 -11 72 -27 166
-36 210 -8 44 -19 106 -24 137 -6 32 -15 69 -20 84 -6 14 -10 41 -10 60 0 19
-4 34 -10 34 -5 0 -10 13 -10 30 0 16 -19 96 -42 177 -23 81 -41 156 -40 166
0 9 -21 97 -49 194 -27 97 -49 182 -49 189 0 7 -5 14 -11 16 -6 2 -13 25 -16
51 -3 26 -10 47 -14 47 -5 0 -9 16 -9 35 0 19 -4 35 -8 35 -8 0 -35 77 -47
138 -4 17 -11 32 -16 32 -5 0 -9 16 -9 35 0 19 -4 35 -9 35 -4 0 -18 35 -31
78 -13 42 -26 79 -30 82 -3 3 -17 42 -30 88 -13 45 -27 82 -31 82 -4 0 -10 12
-14 27 -3 15 -11 31 -17 34 -5 3 -12 26 -15 50 -4 24 -14 51 -23 59 -10 8 -19
36 -22 64 -3 27 -10 51 -16 55 -5 3 -15 25 -22 49 -7 23 -16 42 -20 42 -4 0
-13 20 -20 46 -8 29 -17 43 -26 40 -14 -5 -29 44 -25 83 2 17 -1 22 -11 18
-11 -4 -21 14 -38 66 -12 40 -31 79 -41 88 -10 8 -21 27 -24 42 -4 15 -12 27
-17 27 -6 0 -8 11 -6 25 4 17 0 29 -11 35 -13 8 -14 11 -2 19 14 9 -2 26 -17
17 -5 -3 -17 21 -27 52 -9 31 -25 64 -35 72 -9 8 -21 26 -25 40 -4 14 -12 28
-17 31 -5 3 -11 15 -13 25 -2 10 -4 20 -5 22 -2 1 -4 7 -5 12 -1 6 -3 11 -5
13 -1 1 -3 11 -5 22 -2 11 -9 21 -14 23 -6 2 -11 10 -11 17 0 8 -7 21 -16 29
-11 11 -12 16 -3 16 7 0 3 9 -9 21 -12 11 -20 24 -17 28 2 5 -4 16 -15 26 -11
10 -17 21 -15 25 2 4 -4 15 -15 25 -10 9 -16 23 -13 31 3 8 0 14 -5 14 -6 0
-14 10 -18 22 -3 12 -13 28 -20 36 -8 7 -14 22 -14 33 0 10 -4 19 -9 19 -5 0
-13 10 -17 22 -3 12 -17 32 -29 44 -13 13 -27 33 -31 46 -3 12 -13 28 -20 36
-8 7 -14 20 -14 28 0 8 -5 14 -11 14 -6 0 -8 9 -4 20 4 11 2 20 -4 20 -21 0
-62 51 -56 71 4 11 2 19 -4 19 -6 0 -11 6 -11 14 0 8 -9 18 -20 21 -18 6 -24
17 -21 38 1 4 -14 23 -34 42 -21 22 -32 41 -28 50 3 10 -5 24 -21 38 -14 13
-26 28 -26 35 0 7 -4 12 -10 12 -5 0 -6 8 -3 17 5 12 2 15 -10 10 -16 -6 -21
2 -18 31 1 6 -3 12 -9 12 -5 0 -10 7 -10 15 0 9 -7 18 -15 21 -8 4 -15 10 -15
15 0 6 -5 15 -10 22 -41 49 -51 63 -56 83 -3 12 -12 25 -20 28 -8 3 -14 12
-14 20 0 8 -9 18 -20 21 -11 3 -20 10 -20 14 0 4 -8 17 -17 29 -38 45 -53 66
-53 74 0 9 -12 25 -41 56 -9 9 -19 25 -22 35 -4 9 -13 17 -22 17 -9 0 -15 9
-15 24 0 15 -7 27 -19 31 -10 3 -24 19 -31 36 -8 18 -18 28 -26 25 -9 -3 -14
2 -14 14 0 24 -37 63 -50 55 -6 -4 -10 5 -10 19 0 14 -4 26 -9 26 -5 0 -13 9
-16 21 -4 12 -12 18 -21 15 -9 -3 -14 1 -14 14 0 11 -16 35 -35 54 -19 20 -35
40 -35 47 0 6 -6 9 -14 6 -9 -4 -19 5 -26 24 -7 16 -37 54 -66 84 -30 30 -54
59 -54 64 0 5 -29 39 -65 76 -36 36 -65 71 -65 76 0 6 -9 8 -20 4 -14 -5 -18
-3 -15 8 7 16 -71 101 -84 92 -5 -2 -12 6 -15 19 -3 14 -15 27 -25 31 -10 3
-24 19 -31 35 -7 16 -21 32 -31 35 -10 4 -19 12 -19 18 -1 7 -12 21 -26 32
-51 39 -74 62 -74 73 0 5 -7 12 -15 16 -8 3 -15 12 -15 21 0 8 -7 15 -16 15
-18 0 -94 72 -94 89 0 6 -9 11 -20 11 -11 0 -24 8 -27 17 -11 29 -83 91 -119
103 -19 6 -34 18 -34 25 0 21 -66 83 -87 81 -10 0 -17 5 -16 12 4 18 -34 52
-52 46 -10 -4 -15 0 -15 10 0 17 -35 57 -47 55 -22 -4 -31 3 -26 19 3 14 -4
22 -26 32 -17 7 -31 16 -31 20 0 5 -13 13 -29 18 -16 6 -32 20 -36 32 -5 14
-13 20 -28 18 -16 -2 -21 2 -19 15 2 9 -1 17 -6 17 -5 0 -18 8 -30 18 -11 9
-30 24 -42 32 -12 8 -30 22 -40 30 -27 21 -55 43 -80 60 -12 8 -39 32 -61 53
-22 20 -46 37 -54 37 -8 0 -15 5 -15 10 0 6 -8 10 -17 8 -12 -2 -17 3 -15 14
2 11 -7 18 -28 23 -17 4 -34 13 -37 21 -3 8 -11 14 -18 14 -7 0 -15 7 -19 15
-3 8 -12 15 -21 15 -8 0 -15 7 -15 15 0 8 -3 14 -7 14 -33 -5 -83 25 -83 51 0
10 -3 10 -14 1 -12 -10 -13 -8 -8 11 5 20 3 21 -10 11 -12 -11 -19 -10 -36 6
-12 10 -22 24 -22 31 0 10 -3 10 -15 0 -12 -10 -15 -10 -15 4 0 9 -4 16 -8 16
-15 0 -52 37 -52 51 0 10 -3 10 -11 2 -13 -13 -39 6 -39 28 0 8 -4 9 -13 0
-15 -12 -37 3 -37 27 0 11 -3 12 -14 3 -15 -13 -25 -6 -60 42 -11 14 -24 23
-28 20 -5 -2 -17 4 -27 16 -10 11 -21 18 -24 14 -4 -3 -16 4 -27 17 -11 13
-23 20 -27 17 -3 -4 -14 3 -25 15 -10 12 -21 18 -25 15 -3 -4 -14 3 -25 15
-10 12 -21 18 -25 15 -3 -4 -14 3 -24 14 -10 12 -23 18 -28 14 -6 -3 -11 -1
-11 5 0 17 -28 42 -40 35 -5 -3 -10 -1 -10 5 0 7 -6 10 -12 7 -7 -2 -21 5 -30
15 -9 11 -22 17 -27 13 -6 -3 -11 -2 -11 3 0 5 -18 14 -40 21 -22 6 -40 16
-40 20 0 5 -20 14 -44 21 -34 9 -43 16 -39 28 5 11 2 14 -10 9 -9 -3 -17 -3
-17 2 0 5 -20 14 -44 21 -35 10 -43 16 -39 31 3 10 0 19 -6 19 -6 0 -11 -7
-11 -15 0 -8 -4 -15 -10 -15 -5 0 -7 6 -4 14 4 9 -3 14 -22 14 -14 0 -29 4
-33 9 -3 6 -17 14 -31 18 -14 4 -33 17 -42 27 -9 11 -22 17 -27 13 -6 -3 -11
-1 -11 4 0 6 -7 11 -15 11 -8 0 -15 4 -15 8 0 5 -18 14 -40 21 -25 7 -40 18
-40 27 0 10 -6 14 -15 10 -22 -8 -75 14 -75 31 0 9 -6 13 -15 9 -8 -3 -15 -1
-15 5 0 6 -7 9 -15 5 -8 -3 -15 0 -15 5 0 6 -9 9 -19 6 -15 -3 -18 -1 -14 11
5 11 2 14 -10 9 -10 -4 -17 -2 -17 4 0 6 -7 9 -15 5 -8 -3 -15 0 -15 5 0 6 -9
9 -19 6 -15 -3 -18 -1 -14 11 5 11 2 14 -10 9 -10 -4 -17 -2 -17 4 0 6 -6 9
-14 6 -8 -3 -30 -1 -49 5 -25 8 -34 15 -29 26 4 11 1 14 -10 9 -18 -6 -88 12
-88 24 0 4 -12 10 -27 14 -15 3 -31 11 -34 17 -4 6 -21 11 -38 12 -17 0 -31 4
-31 8 0 3 -13 9 -30 13 -16 4 -30 11 -30 16 0 5 -7 9 -15 9 -8 0 -15 4 -15 9
0 5 -15 12 -32 16 -47 9 -122 37 -129 48 -4 5 -11 7 -16 4 -13 -8 -83 14 -83
25 0 5 -8 8 -17 7 -26 -4 -83 11 -83 22 0 5 -7 9 -15 9 -8 0 -15 4 -15 8 0 5
-14 9 -31 9 -17 0 -34 5 -39 13 -4 7 -12 10 -17 7 -12 -7 -83 13 -83 24 0 4
-14 7 -31 7 -17 -1 -34 4 -37 9 -4 6 -20 11 -36 11 -15 0 -31 4 -35 10 -4 6
-15 11 -26 10 -22 -1 -168 39 -194 53 -45 24 -96 39 -192 58 -59 11 -113 23
-120 26 -16 6 -281 64 -321 70 -31 5 -233 41 -313 55 -27 5 -97 16 -155 24
-58 8 -136 20 -175 26 -38 6 -110 15 -160 20 -49 5 -121 14 -160 19 -38 6
-126 15 -195 21 -69 6 -174 15 -235 20 -120 11 -545 18 -550 9z"/>
</g>
</svg>
